<svg width="65" height="64" viewBox="0 0 65 64" fill="none" xmlns="http://www.w3.org/2000/svg">
<path fill-rule="evenodd" clip-rule="evenodd" d="M53.5538 0.738037C54.0699 0.738037 54.5124 0.958846 54.8445 1.29092L63.582 9.99073C63.9508 10.3228 64.1716 10.8021 64.1348 11.2814V40.8102C64.1348 53.6396 53.7019 63.9989 40.9462 63.9989H11.4165C10.9372 63.9989 10.4579 63.7781 10.1258 63.446L1.42601 54.7462C1.05713 54.4141 0.836323 53.9348 0.873125 53.4556V23.9267C0.873125 11.0974 11.2325 0.738037 23.9873 0.738037H53.5538ZM9.35212 54.8566V23.9267C9.35212 15.7798 15.914 9.21704 24.0618 9.14343H46.5863C46.9184 9.14343 47.2128 9.4387 47.2128 9.76992V39.8517C47.2128 43.7963 44.0059 46.9664 40.0612 47.0032H24.1722C23.9514 47.0032 23.7297 47.1872 23.6193 47.4089L22.5503 50.211C22.4031 50.5063 22.5503 50.8743 22.8456 50.9856C22.9192 51.0224 22.9928 51.0224 23.1041 51.0224H40.947C46.5872 51.0224 51.196 46.488 51.196 40.8102C51.196 40.7734 51.196 40.7734 51.196 40.7366V5.78845C51.196 5.45638 50.9375 5.16197 50.5695 5.16197H24.0241C13.7016 5.16197 5.29621 13.4938 5.29621 23.8163C5.29621 23.8531 5.29621 23.8531 5.29621 23.8899V52.0554C5.29621 52.2026 5.36981 52.3875 5.48022 52.4979L8.2823 55.2999C8.54077 55.5584 8.90879 55.5584 9.16726 55.2999C9.27852 55.1887 9.35212 55.0415 9.35212 54.8566ZM22.2183 41.9537V24.774C22.2183 23.3362 23.3976 22.1568 24.9091 22.1568H42.0888C42.4208 22.1568 42.7152 22.452 42.7152 22.7833V39.9629C42.7152 41.4008 41.5359 42.6538 40.098 42.6538H22.8816C22.5127 42.5433 22.2183 42.2857 22.2183 41.9537ZM40.9453 59.5022C51.2678 59.5022 59.6364 51.0968 59.6364 40.7743V12.6088C59.6364 12.4616 59.5628 12.2767 59.4524 12.1663L56.6503 9.36424C56.3919 9.10577 56.0239 9.10577 55.7654 9.36424C55.655 9.47465 55.5814 9.65951 55.5814 9.80672V40.8102C55.5814 48.9204 49.0195 55.5199 40.9085 55.5199H40.8717H18.3472C18.0151 55.5199 17.7207 55.2246 17.7207 54.8934V24.8116C17.7207 20.867 20.9276 17.6969 24.8723 17.6601H40.7613C40.9821 17.6601 41.2038 17.4761 41.3142 17.2544L42.3832 14.4523C42.5304 14.157 42.3832 13.789 42.0879 13.6778C42.0143 13.641 41.9407 13.641 41.8294 13.641H24.0609C18.384 13.641 13.812 18.2489 13.812 23.8899V58.8381C13.812 59.1701 14.1073 59.4645 14.4385 59.4645L40.9453 59.5022Z" fill="#D7D7D7"/>
</svg>
