<svg width="153" height="36" viewBox="0 0 153 36" fill="none" xmlns="http://www.w3.org/2000/svg">
<path fill-rule="evenodd" clip-rule="evenodd" d="M34.9918 17.9241C34.9918 27.3501 27.3506 34.9913 17.9246 34.9913C14.8792 34.9913 12.0201 34.1937 9.54475 32.7959L3.7184 35.1149C2.58294 35.5668 1.44387 34.4708 1.85172 33.3188L3.87191 27.6125C1.97083 24.8602 0.857422 21.5222 0.857422 17.9241C0.857422 8.49817 8.49866 0.856934 17.9246 0.856934C27.3506 0.856934 34.9918 8.49817 34.9918 17.9241ZM17.9247 30.7248C15.414 30.7248 13.0722 30.002 11.0959 28.7531L6.4938 30.5848L8.07957 26.1056C6.23418 23.8873 5.12431 21.0355 5.12431 17.9244C5.12431 10.855 10.8552 5.12403 17.9247 5.12403C24.9942 5.12403 30.7251 10.855 30.7251 17.9244C30.7251 24.9939 24.9942 30.7248 17.9247 30.7248ZM14.3687 10.8129C13.1905 10.8129 12.2353 11.768 12.2353 12.9463V18.6354C12.2353 19.8136 13.1905 20.7688 14.3687 20.7688C15.547 20.7688 16.5021 19.8136 16.5021 18.6354V12.9463C16.5021 11.768 15.547 10.8129 14.3687 10.8129ZM20.7689 12.9463C20.7689 11.768 21.7241 10.8129 22.9023 10.8129C24.0806 10.8129 25.0357 11.768 25.0357 12.9463V18.6354C25.0357 19.8136 24.0806 20.7688 22.9023 20.7688C21.7241 20.7688 20.7689 19.8136 20.7689 18.6354V12.9463ZM46.4762 28.3835C46.6286 28.5358 46.8136 28.612 47.0313 28.612H63.3252C63.5647 28.612 63.7606 28.5358 63.913 28.3835C64.0653 28.2311 64.1415 28.0461 64.1415 27.8284V26.7403C64.6607 27.3661 65.3246 27.8811 66.1334 28.2855C67.0476 28.7209 68.0708 28.9386 69.2028 28.9386C70.1388 28.9386 70.9442 28.8297 71.6191 28.612C72.3157 28.3726 72.9034 28.0678 73.3823 27.6978C73.8613 27.3277 74.2422 26.9467 74.5252 26.5549V27.8284C74.5252 28.0461 74.5905 28.2311 74.7211 28.3835C74.8735 28.5358 75.0694 28.612 75.3089 28.612H77.9538C78.1715 28.612 78.3565 28.5358 78.5089 28.3835C78.6613 28.2311 78.7374 28.0461 78.7374 27.8284V17.5753C78.7374 16.7263 78.6068 15.9209 78.3456 15.159C78.0844 14.3971 77.6708 13.7331 77.1048 13.1671C76.5388 12.6012 75.7769 12.1549 74.8191 11.8284C73.883 11.4801 72.7293 11.3059 71.3579 11.3059C70.0953 11.3059 69.0177 11.4692 68.1252 11.7957C67.2327 12.1222 66.5034 12.525 65.9374 13.0039C65.3932 13.461 64.9796 13.9399 64.6966 14.4406C64.4354 14.9413 64.2939 15.3658 64.2721 15.7141C64.2721 15.9318 64.3266 16.1059 64.4354 16.2365C64.566 16.3671 64.751 16.4324 64.9905 16.4324H67.5701C67.8966 16.4324 68.147 16.2909 68.3211 16.008C68.5606 15.4855 68.9198 15.0719 69.3987 14.7671C69.8994 14.4406 70.5415 14.2773 71.3252 14.2773C72.4354 14.2773 73.2191 14.5277 73.6762 15.0284C74.1334 15.529 74.3619 16.2365 74.3619 17.1508V17.8365L69.8885 18.4896C67.8857 18.7943 66.264 19.4039 65.0232 20.3182C63.7823 21.2107 63.1619 22.4188 63.1619 23.9426C63.1619 24.211 63.1834 24.4723 63.2264 24.7263H52.2232L63.3579 9.96714C63.4667 9.81476 63.5647 9.65149 63.6517 9.47734C63.7388 9.30319 63.7823 9.08551 63.7823 8.82428V6.57122C63.7823 6.33176 63.7062 6.13585 63.5538 5.98346C63.4014 5.83108 63.2055 5.75489 62.966 5.75489H47.3578C47.1184 5.75489 46.9225 5.83108 46.7701 5.98346C46.6395 6.13585 46.5742 6.33176 46.5742 6.57122V8.82428C46.5742 9.04197 46.6395 9.227 46.7701 9.37938C46.9225 9.53176 47.1184 9.60795 47.3578 9.60795H58.1007L46.7374 24.3018C46.6721 24.3889 46.5742 24.5304 46.4436 24.7263C46.313 24.9222 46.2476 25.1835 46.2476 25.51V27.7957C46.2476 28.0352 46.3238 28.2311 46.4762 28.3835ZM72.3701 25.3467C71.7606 25.6733 71.0749 25.8365 70.313 25.8365C69.8123 25.8365 69.3334 25.7603 68.8762 25.608C68.4191 25.4338 68.0381 25.1835 67.7334 24.8569C67.4504 24.5086 67.3089 24.095 67.3089 23.6161C67.3089 22.9848 67.6245 22.4515 68.2558 22.0161C68.8871 21.5807 69.8449 21.2651 71.1293 21.0692L74.3946 20.5467V21.2324C74.3946 22.2773 74.2096 23.1481 73.8395 23.8447C73.4912 24.5195 73.0014 25.0202 72.3701 25.3467ZM80.4775 34.8161C80.2598 34.8161 80.0748 34.7399 79.9224 34.5876C79.77 34.4352 79.6938 34.2501 79.6938 34.0324V12.4161C79.6938 12.1984 79.77 12.0134 79.9224 11.861C80.0748 11.7086 80.2598 11.6324 80.4775 11.6324H83.0571C83.2965 11.6324 83.4816 11.7086 83.6122 11.861C83.7646 12.0134 83.8408 12.1984 83.8408 12.4161V13.7222C84.3632 13.0256 85.0489 12.4488 85.8979 11.9916C86.7469 11.5345 87.8027 11.3059 89.0653 11.3059C90.219 11.3059 91.2204 11.4909 92.0693 11.861C92.9183 12.2311 93.6258 12.7644 94.1918 13.461C94.7578 14.1358 95.1931 14.9413 95.4979 15.8773C95.8027 16.8134 95.9768 17.8474 96.0204 18.9794C96.0421 19.3495 96.053 19.7304 96.053 20.1222C96.053 20.5141 96.0421 20.9059 96.0204 21.2978C95.9986 22.3862 95.8353 23.3984 95.5306 24.3345C95.2258 25.2488 94.7795 26.0542 94.1918 26.7508C93.6258 27.4256 92.9183 27.959 92.0693 28.3508C91.2204 28.7427 90.219 28.9386 89.0653 28.9386C87.8897 28.9386 86.8884 28.7318 86.0612 28.3182C85.234 27.8828 84.5591 27.3168 84.0367 26.6202V34.0324C84.0367 34.2501 83.9605 34.4352 83.8081 34.5876C83.6775 34.7399 83.4925 34.8161 83.253 34.8161H80.4775ZM87.8571 25.4447C88.7931 25.4447 89.5224 25.2488 90.0448 24.8569C90.5673 24.4433 90.9482 23.91 91.1877 23.2569C91.4272 22.6039 91.5687 21.8855 91.6122 21.1018C91.634 20.4488 91.634 19.7957 91.6122 19.1426C91.5687 18.359 91.4272 17.6406 91.1877 16.9875C90.9482 16.3345 90.5673 15.812 90.0448 15.4202C89.5224 15.0066 88.7931 14.7998 87.8571 14.7998C86.9646 14.7998 86.2353 15.0066 85.6693 15.4202C85.1251 15.8338 84.7224 16.3671 84.4612 17.0202C84.2217 17.6515 84.0802 18.3046 84.0367 18.9794C84.0149 19.3712 84.004 19.7848 84.004 20.2202C84.004 20.6556 84.0149 21.0801 84.0367 21.4937C84.0584 22.1467 84.2108 22.778 84.4938 23.3875C84.7768 23.9753 85.1904 24.4651 85.7346 24.8569C86.2789 25.2488 86.9863 25.4447 87.8571 25.4447ZM97.2061 34.5876C97.3585 34.7399 97.5436 34.8161 97.7612 34.8161H100.537C100.776 34.8161 100.961 34.7399 101.092 34.5876C101.244 34.4352 101.32 34.2501 101.32 34.0324V26.6202C101.843 27.3168 102.518 27.8828 103.345 28.3182C104.172 28.7318 105.173 28.9386 106.349 28.9386C107.503 28.9386 108.504 28.7427 109.353 28.3508C110.202 27.959 110.91 27.4256 111.476 26.7508C112.063 26.0542 112.51 25.2488 112.814 24.3345C113.119 23.3984 113.282 22.3862 113.304 21.2978C113.326 20.9059 113.337 20.5141 113.337 20.1222C113.337 19.7304 113.326 19.3495 113.304 18.9794C113.261 17.8474 113.086 16.8134 112.782 15.8773C112.477 14.9413 112.042 14.1358 111.476 13.461C110.91 12.7644 110.202 12.2311 109.353 11.861C108.504 11.4909 107.503 11.3059 106.349 11.3059C105.086 11.3059 104.031 11.5345 103.182 11.9916C102.333 12.4488 101.647 13.0256 101.125 13.7222V12.4161C101.125 12.1984 101.048 12.0134 100.896 11.861C100.765 11.7086 100.58 11.6324 100.341 11.6324H97.7612C97.5436 11.6324 97.3585 11.7086 97.2061 11.861C97.0538 12.0134 96.9776 12.1984 96.9776 12.4161V34.0324C96.9776 34.2501 97.0538 34.4352 97.2061 34.5876ZM107.329 24.8569C106.806 25.2488 106.077 25.4447 105.141 25.4447C104.27 25.4447 103.563 25.2488 103.018 24.8569C102.474 24.4651 102.061 23.9753 101.778 23.3875C101.495 22.778 101.342 22.1467 101.32 21.4937C101.299 21.0801 101.288 20.6556 101.288 20.2202C101.288 19.7848 101.299 19.3712 101.32 18.9794C101.364 18.3046 101.505 17.6515 101.745 17.0202C102.006 16.3671 102.409 15.8338 102.953 15.4202C103.519 15.0066 104.248 14.7998 105.141 14.7998C106.077 14.7998 106.806 15.0066 107.329 15.4202C107.851 15.812 108.232 16.3345 108.471 16.9875C108.711 17.6406 108.852 18.359 108.896 19.1426C108.918 19.7957 108.918 20.4488 108.896 21.1018C108.852 21.8855 108.711 22.6039 108.471 23.2569C108.232 23.91 107.851 24.4433 107.329 24.8569ZM114.929 28.6121C114.711 28.6121 114.526 28.5359 114.374 28.3835C114.221 28.2312 114.145 28.0461 114.145 27.8284V12.4488C114.145 12.2094 114.221 12.0135 114.374 11.8611C114.526 11.7087 114.711 11.6325 114.929 11.6325H117.574C117.791 11.6325 117.976 11.7087 118.129 11.8611C118.303 12.0135 118.39 12.2094 118.39 12.4488V13.7876C118.891 13.091 119.533 12.5577 120.317 12.1876C121.122 11.8175 122.047 11.6325 123.092 11.6325H124.431C124.67 11.6325 124.855 11.7087 124.986 11.8611C125.138 12.0135 125.215 12.1985 125.215 12.4162V14.7672C125.215 14.9849 125.138 15.1699 124.986 15.3223C124.855 15.4747 124.67 15.5509 124.431 15.5509H121.884C120.839 15.5509 120.023 15.8448 119.435 16.4325C118.869 16.9985 118.586 17.8039 118.586 18.8488V27.8284C118.586 28.0461 118.51 28.2312 118.357 28.3835C118.205 28.5359 118.009 28.6121 117.77 28.6121H114.929ZM120.601 28.3835C120.754 28.5359 120.939 28.6121 121.156 28.6121H124.422C124.639 28.6121 124.824 28.5359 124.977 28.3835C125.129 28.2312 125.205 28.0461 125.205 27.8284V24.5958C125.205 24.3563 125.129 24.1604 124.977 24.008C124.824 23.8556 124.639 23.7795 124.422 23.7795H121.156C120.939 23.7795 120.754 23.8556 120.601 24.008C120.449 24.1604 120.373 24.3563 120.373 24.5958V27.8284C120.373 28.0461 120.449 28.2312 120.601 28.3835ZM127.202 28.6121C127.028 28.6121 126.864 28.5468 126.712 28.4162C126.581 28.2856 126.516 28.1223 126.516 27.9264C126.516 27.8393 126.538 27.7414 126.581 27.6325L134.451 6.57129C134.516 6.3536 134.636 6.16857 134.81 6.01619C135.006 5.84204 135.267 5.75496 135.594 5.75496H139.153C139.479 5.75496 139.73 5.84204 139.904 6.01619C140.078 6.16857 140.209 6.3536 140.296 6.57129L147.981 27.1396V6.53864C147.981 6.32095 148.057 6.13592 148.209 5.98353C148.362 5.83115 148.547 5.75496 148.765 5.75496H151.834C152.073 5.75496 152.258 5.83115 152.389 5.98353C152.541 6.13592 152.618 6.32095 152.618 6.53864V27.8284C152.618 28.0461 152.541 28.2312 152.389 28.3835C152.258 28.5359 152.073 28.6121 151.834 28.6121H148.765C148.547 28.6121 148.362 28.5359 148.209 28.3835C148.173 28.3473 148.141 28.3092 148.114 28.2693C148.084 28.3222 148.047 28.3711 148.002 28.4162C147.871 28.5468 147.719 28.6121 147.545 28.6121H144.704C144.399 28.6121 144.171 28.5468 144.018 28.4162C143.888 28.2638 143.8 28.1223 143.757 27.9917L142.222 24.008H132.524L130.99 27.9917C130.946 28.1223 130.848 28.2638 130.696 28.4162C130.565 28.5468 130.347 28.6121 130.043 28.6121H127.202ZM133.667 20.2529H141.079L137.357 10.1631L133.667 20.2529Z" fill="white"/>
</svg>
