<svg width="65" height="64" viewBox="0 0 65 64" fill="none" xmlns="http://www.w3.org/2000/svg">
<path d="M32.134 0C14.0656 0 0.0629883 13.2058 0.0629883 31.0429C0.0629883 40.3724 3.89654 48.4347 10.1365 54.004C11.214 54.9731 10.992 55.5344 11.1752 61.518C11.1897 61.9371 11.3064 62.3463 11.5153 62.71C11.7242 63.0736 12.0189 63.3806 12.3737 63.6042C12.7284 63.8278 13.1325 63.9612 13.5507 63.9927C13.9688 64.0243 14.3884 63.953 14.7727 63.7852C21.5998 60.7786 21.6875 60.5411 22.8449 60.856C42.6243 66.3002 64.063 53.6414 64.063 31.0429C64.063 13.2058 50.2036 0 32.134 0ZM51.3907 23.889L41.9714 38.802C41.6157 39.3628 41.148 39.844 40.5976 40.2156C40.0473 40.5872 39.4261 40.8411 38.773 40.9614C38.12 41.0817 37.4491 41.0658 36.8025 40.9147C36.1558 40.7636 35.5474 40.4806 35.0152 40.0833L27.5211 34.474C27.186 34.2227 26.7785 34.0869 26.3598 34.0869C25.941 34.0869 25.5335 34.2227 25.1985 34.474L15.0862 42.1441C13.7365 43.1674 11.9688 41.5505 12.8785 40.122L22.2978 25.209C22.6534 24.6481 23.121 24.1667 23.6714 23.795C24.2217 23.4233 24.8429 23.1694 25.4961 23.049C26.1492 22.9287 26.8201 22.9447 27.4668 23.0959C28.1134 23.2471 28.7219 23.5303 29.254 23.9277L36.7456 29.5357C37.0806 29.787 37.4881 29.9228 37.9069 29.9228C38.3256 29.9228 38.7331 29.787 39.0681 29.5357L49.1856 21.8734C50.5327 20.8436 52.3004 22.4592 51.3907 23.889Z" fill="#D7D7D7"/>
</svg>
