<svg width="65" height="64" viewBox="0 0 65 64" fill="none" xmlns="http://www.w3.org/2000/svg">
<path d="M32.4365 0C14.9115 0 0.712402 14.1991 0.712402 31.7241C0.712402 49.2492 14.9115 63.4483 32.4365 63.4483C49.9616 63.4483 64.1607 49.2492 64.1607 31.7241C64.1607 14.1991 49.9616 0 32.4365 0ZM48.0172 21.7336L42.8108 46.2686C42.4271 48.0083 41.3909 48.4305 39.9454 47.6118L32.0144 41.7659L28.1896 45.4499C27.7675 45.8721 27.4093 46.2303 26.5906 46.2303L27.1534 38.1585L41.8514 24.8804C42.491 24.3176 41.7107 23.9978 40.8665 24.5606L22.7018 35.9967L14.8731 33.5534C13.1718 33.0161 13.1334 31.8521 15.2313 31.0334L45.817 19.2392C47.2369 18.7275 48.4777 19.5845 48.0172 21.7336Z" fill="#D7D7D7"/>
</svg>
