<svg width="65" height="64" viewBox="0 0 65 64" fill="none" xmlns="http://www.w3.org/2000/svg">
<path d="M55.3806 9.3C49.3949 3.3 41.4235 0 32.952 0C15.4663 0 1.23774 14.2286 1.23774 31.7143C1.23774 37.3 2.69488 42.7571 5.46631 47.5714L0.966309 64L17.7806 59.5857C22.4092 62.1143 27.6235 63.4429 32.9377 63.4429H32.952C50.4235 63.4429 64.9663 49.2143 64.9663 31.7286C64.9663 23.2571 61.3663 15.3 55.3806 9.3ZM32.952 58.1C28.2092 58.1 23.5663 56.8286 19.5235 54.4286L18.5663 53.8571L8.59488 56.4714L11.252 46.7429L10.6235 45.7429C7.98059 41.5429 6.59488 36.7 6.59488 31.7143C6.59488 17.1857 18.4235 5.35714 32.9663 5.35714C40.0092 5.35714 46.6235 8.1 51.5949 13.0857C56.5663 18.0714 59.6235 24.6857 59.6092 31.7286C59.6092 46.2714 47.4806 58.1 32.952 58.1ZM47.4092 38.3571C46.6235 37.9571 42.7235 36.0429 41.9949 35.7857C41.2663 35.5143 40.7377 35.3857 40.2092 36.1857C39.6806 36.9857 38.1663 38.7571 37.6949 39.3C37.2377 39.8286 36.7663 39.9 35.9806 39.5C31.3235 37.1714 28.2663 35.3429 25.1949 30.0714C24.3806 28.6714 26.0092 28.7714 27.5235 25.7429C27.7806 25.2143 27.652 24.7571 27.452 24.3571C27.252 23.9571 25.6663 20.0571 25.0092 18.4714C24.3663 16.9286 23.7092 17.1429 23.2235 17.1143C22.7663 17.0857 22.2377 17.0857 21.7092 17.0857C21.1806 17.0857 20.3235 17.2857 19.5949 18.0714C18.8663 18.8714 16.8235 20.7857 16.8235 24.6857C16.8235 28.5857 19.6663 32.3571 20.052 32.8857C20.452 33.4143 25.6377 41.4143 33.5949 44.8571C38.6235 47.0286 40.5949 47.2143 43.1092 46.8429C44.6377 46.6143 47.7949 44.9286 48.452 43.0714C49.1092 41.2143 49.1092 39.6286 48.9092 39.3C48.7235 38.9429 48.1949 38.7429 47.4092 38.3571Z" fill="#D7D7D7"/>
</svg>
