<svg width="64" height="64" viewBox="0 0 64 64" fill="none" xmlns="http://www.w3.org/2000/svg">
<path d="M31.7855 0C33.5776 0.00330062 35.3402 0.15513 37.0536 0.442284V18.9588L50.1475 5.86522C51.5937 6.895 52.9467 8.04031 54.1975 9.29126C55.449 10.5422 56.5978 11.8988 57.6275 13.3445L44.5329 26.438H63.0506C63.3379 28.151 63.4898 29.907 63.4898 31.7025V31.7454C63.4898 33.541 63.3379 35.3002 63.0506 37.0133H44.5297L57.6275 50.1035C56.5978 51.5492 55.449 52.9058 54.2013 54.1567H54.1975C52.9467 55.4077 51.5937 56.5563 50.1513 57.5828L37.0536 44.4891V63.0057C35.3433 63.2929 33.5808 63.4445 31.7886 63.4483H31.7426C29.9499 63.4445 28.1942 63.2929 26.4809 63.0057V44.4891L13.3869 57.5828C10.4951 55.5264 7.96695 52.9949 5.90697 50.1035L19.0016 37.0133H0.483872C0.193371 35.2969 0.0415039 33.531 0.0415039 31.7355V31.6434C0.0445141 31.1774 0.074948 30.6082 0.118661 30.0193L0.132159 29.8421C0.261589 28.1844 0.483872 26.438 0.483872 26.438H19.0016L5.90697 13.3445C6.93349 11.8988 8.07911 10.5455 9.32997 9.2979L9.33627 9.29126C10.5846 8.04031 11.9407 6.895 13.3869 5.86522L26.4809 18.9588V0.442284C28.1942 0.15513 29.9536 0.00330062 31.7489 0H31.7855ZM31.7823 23.7942H31.7521C29.3953 23.7942 27.1381 24.2266 25.0517 25.0121C24.2696 27.0949 23.8367 29.3525 23.8336 31.7091V31.7388C23.8367 34.0955 24.2696 36.3531 25.0548 38.4358C27.1381 39.2214 29.3953 39.6538 31.7521 39.6538H31.7823C34.1391 39.6538 36.3963 39.2214 38.4796 38.4358C39.2648 36.3498 39.6977 34.0955 39.6977 31.7388V31.7091C39.6977 29.3525 39.2648 27.0949 38.4796 25.0121C36.3963 24.2266 34.1391 23.7942 31.7823 23.7942Z" fill="#D7D7D7"/>
</svg>
